<svg width="24" height="24" viewBox="0 0 24 24" fill="none" xmlns="http://www.w3.org/2000/svg">
<circle cx="12" cy="20.7968" r="2" fill="white"/>
<path d="M13.1953 21.7968C12.4143 22.5779 11.4764 22.5779 10.6953 21.7968" stroke="#3B3B3B" stroke-linecap="round"/>
<path d="M12 4.54681C15.1179 4.54681 17.7934 6.7675 18.3682 9.83197L19.8828 17.9062C19.9939 18.4986 19.5392 19.0466 18.9365 19.0468H5.06348C4.46079 19.0466 4.00611 18.4986 4.11719 17.9062L5.63184 9.83197C6.2066 6.7675 8.88206 4.54681 12 4.54681Z" fill="white" stroke="#3B3B3B" stroke-width="1.5" stroke-linejoin="round"/>
<path d="M6.19531 2.29681C5.02865 3.29681 3.19531 5.29681 2.69531 8.29681" stroke="#71C2FF" stroke-linecap="round"/>
<path d="M17.6953 2.29681C18.862 3.29681 20.6953 5.29681 21.1953 8.29681" stroke="#71C2FF" stroke-linecap="round"/>
</svg>
