<svg width="24" height="24" viewBox="0 0 24 24" fill="none" xmlns="http://www.w3.org/2000/svg">
<g transform="translate(2, 1)">
<rect x="6.75" y="11.4832" width="6" height="9" fill="#E4ECFD"/>
<path d="M0.75 7.97224C0.75 7.66365 0.892473 7.37234 1.13606 7.18289L9.13606 0.960663C9.49717 0.679799 10.0028 0.6798 10.3639 0.960664L18.3639 7.18289C18.6075 7.37234 18.75 7.66365 18.75 7.97224V18.4832C18.75 19.0136 18.5393 19.5223 18.1642 19.8974C17.7891 20.2724 17.2804 20.4832 16.75 20.4832H2.75C2.21957 20.4832 1.71086 20.2724 1.33579 19.8974C0.960714 19.5223 0.75 19.0136 0.75 18.4832V7.97224Z" stroke="#3B3B3B" stroke-width="1.5" stroke-linecap="round" stroke-linejoin="round"/>
<path d="M6.47729 19.7559V11.0286H13.0227V15.3923M13.0227 17.5741V18.665" stroke="#3B3B3B" stroke-width="1.5" stroke-linecap="round" stroke-linejoin="round"/>
</g>
</svg>
