<svg width="24" height="24" viewBox="0 0 24 24" fill="none" xmlns="http://www.w3.org/2000/svg">
<g transform="translate(2.5, 1.5)">
<path opacity="0.6" d="M4.33276 20.75H15.9697C16.522 20.75 16.9697 20.3023 16.9697 19.75V15.6116V13.3606V11.4608V8.11304C16.9697 7.56075 16.522 7.11304 15.9697 7.11304H13.0896H4.33276C3.78048 7.11304 3.33276 7.56075 3.33276 8.11304V19.75C3.33276 20.3023 3.78048 20.75 4.33276 20.75Z" fill="#226CF5"/>
<path d="M1.75 17.9565H13.387C13.9392 17.9565 14.387 17.5088 14.387 16.9565V12.8181V10.5671V8.66727V5.31952C14.387 4.76723 13.9392 4.31952 13.387 4.31952H10.5068H1.75C1.19772 4.31952 0.75 4.76723 0.75 5.31952V16.9565C0.75 17.5088 1.19771 17.9565 1.75 17.9565Z" fill="white"/>
<path d="M14.387 8.66727V10.5671M10.5068 4.31952H1.75C1.19772 4.31952 0.75 4.76723 0.75 5.31952V16.9565C0.75 17.5088 1.19771 17.9565 1.75 17.9565H13.387C13.9392 17.9565 14.387 17.5088 14.387 16.9565V12.8181" stroke="#3B3B3B" stroke-width="1.5" stroke-linecap="round" stroke-linejoin="round"/>
<path d="M8.76862 9.01789C8.47573 9.31078 8.47573 9.78565 8.76862 10.0785C9.06151 10.3714 9.53639 10.3714 9.82928 10.0785L8.76862 9.01789ZM18.8472 0.750008C18.8472 0.335795 18.5114 8.15281e-06 18.0972 8.30032e-06L11.3472 7.87886e-06C10.9329 7.87886e-06 10.5972 0.335794 10.5972 0.750008C10.5972 1.16422 10.9329 1.50001 11.3472 1.50001H17.3472V7.50001C17.3472 7.91422 17.6829 8.25001 18.0972 8.25001C18.5114 8.25001 18.8472 7.91422 18.8472 7.50001L18.8472 0.750008ZM9.82928 10.0785L18.6275 1.28034L17.5668 0.219678L8.76862 9.01789L9.82928 10.0785Z" fill="#226CF5"/>
</g>
</svg>
