<svg width="24" height="24" viewBox="0 0 24 24" fill="none" xmlns="http://www.w3.org/2000/svg">
<g transform="translate(1.5, 1.5)">
<path d="M15.4199 17.7675C14.7833 17.1309 14.7833 16.0987 15.4199 15.4621C16.0565 14.8255 17.0886 14.8255 17.7252 15.4621L19.5551 17.292C20.1917 17.9286 20.1917 18.9608 19.5551 19.5974C18.9185 20.234 17.8864 20.234 17.2498 19.5974L15.4199 17.7675Z" fill="#226CF5" fill-opacity="0.6"/>
<path d="M15.4199 15.4621L14.2306 14.2728M15.4199 15.4621C16.0565 14.8255 17.0886 14.8255 17.7252 15.4621L19.5551 17.292C20.1917 17.9286 20.1917 18.9608 19.5551 19.5974C18.9185 20.234 17.8864 20.234 17.2498 19.5974L15.4199 17.7675C14.7833 17.1309 14.7833 16.0987 15.4199 15.4621Z" stroke="#3B3B3B" stroke-linecap="round"/>
<path d="M8.74998 0.750061C9.05589 0.790563 9.35563 0.850641 9.64788 0.928995C9.91166 0.999714 10.1693 1.08532 10.42 1.18486M12.8118 2.76054C12.9974 2.94639 13.1728 3.14252 13.3369 3.34801C13.52 3.57735 13.6892 3.81835 13.843 4.06972C14.032 4.37848 14.198 4.70289 14.3385 5.04054C14.686 5.87557 14.8778 6.79163 14.8778 7.75249C14.8778 11.6538 11.7152 14.8164 7.81391 14.8164C3.91262 14.8164 0.75 11.6538 0.75 7.75249C0.75 4.48553 2.96778 1.73656 5.97993 0.928995" stroke="#3B3B3B" stroke-width="1.5" stroke-linecap="round"/>
<path d="M15.4199 15.4621L14.2306 14.2728M15.4199 15.4621C16.0565 14.8255 17.0886 14.8255 17.7252 15.4621L19.5551 17.292C20.1917 17.9286 20.1917 18.9608 19.5551 19.5974C18.9185 20.234 17.8864 20.234 17.2498 19.5974L15.4199 17.7675C14.7833 17.1309 14.7833 16.0987 15.4199 15.4621Z" stroke="#3B3B3B" stroke-width="1.5" stroke-linecap="round"/>
</g>
</svg>
