<svg width="24" height="24" viewBox="0 0 24 24" fill="none" xmlns="http://www.w3.org/2000/svg">
<g transform="translate(1, 2)">
<path d="M20.75 0.75H2.75C1.64543 0.75 0.75 1.64543 0.75 2.75V16.75C0.75 17.8546 1.64543 18.75 2.75 18.75H16.75H20.75V0.75Z" fill="white"/>
<path d="M20.75 0.75H19.2483H18.3031M16.75 18.75H2.75C1.64543 18.75 0.75 17.8546 0.75 16.75V2.75C0.75 1.64543 1.64543 0.75 2.75 0.75H15.2186" stroke="#3B3B3B" stroke-width="1.5" stroke-linecap="round"/>
<path d="M20.75 8.25V7.75C20.75 6.64543 19.8546 5.75 18.75 5.75H0.75V16.75C0.75 17.8546 1.64543 18.75 2.75 18.75H18.75C19.8546 18.75 20.75 17.8546 20.75 16.75V16.25" stroke="#3B3B3B" stroke-width="1.5" stroke-linecap="round"/>
<path opacity="0.6" d="M14.75 12.25C14.75 10.8693 15.8693 9.75 17.25 9.75H20.75V14.75H17.25C15.8693 14.75 14.75 13.6307 14.75 12.25Z" fill="#226CF5"/>
</g>
</svg>
